<svg width="262" height="46" viewBox="0 0 262 46" fill="none" xmlns="http://www.w3.org/2000/svg">
<path d="M22.9997 0C35.7026 0 45.9997 10.2971 45.9997 23V39.1C45.9997 40.93 45.2728 42.685 43.9788 43.979C42.6848 45.273 40.9297 46 39.0997 46H24.1497V35.9099C24.1497 33.6076 24.29 31.2225 25.4975 29.2629C26.362 27.8586 27.5185 26.6566 28.8884 25.7385C30.2583 24.8204 31.8096 24.2077 33.4371 23.9418L33.8776 23.8705C34.0592 23.8085 34.2168 23.6912 34.3284 23.5351C34.44 23.379 34.5 23.1919 34.5 23C34.5 22.8081 34.44 22.621 34.3284 22.4649C34.2168 22.3088 34.0592 22.1915 33.8776 22.1294L33.4371 22.0581C31.0591 21.6697 28.8632 20.5441 27.1594 18.8403C25.4556 17.1365 24.3301 14.9406 23.9416 12.5626L23.8703 12.1222C23.8082 11.9406 23.6909 11.7829 23.5348 11.6713C23.3787 11.5597 23.1916 11.4997 22.9997 11.4997C22.8078 11.4997 22.6208 11.5597 22.4647 11.6713C22.3086 11.7829 22.1913 11.9406 22.1292 12.1222L22.0579 12.5626C21.7922 14.1902 21.1795 15.7415 20.2614 17.1114C19.3433 18.4814 18.1412 19.6378 16.7368 20.5022C14.7772 21.7097 12.3921 21.85 10.0898 21.85H0.0273438C0.628794 9.68185 10.6832 0 22.9997 0Z" fill="#5F6FFF"/>
<path d="M0 24.15H10.0901C12.3924 24.15 14.7775 24.2903 16.7371 25.4978C18.2689 26.4417 19.5583 27.7311 20.5022 29.2629C21.7097 31.2225 21.85 33.6076 21.85 35.9099V46H6.9C5.07001 46 3.31496 45.273 2.02096 43.979C0.726962 42.685 0 40.93 0 39.1L0 24.15ZM46 2.3C46 2.91 45.7577 3.49501 45.3263 3.92635C44.895 4.35768 44.31 4.6 43.7 4.6C43.09 4.6 42.505 4.35768 42.0737 3.92635C41.6423 3.49501 41.4 2.91 41.4 2.3C41.4 1.69 41.6423 1.10499 42.0737 0.673654C42.505 0.242321 43.09 0 43.7 0C44.31 0 44.895 0.242321 45.3263 0.673654C45.7577 1.10499 46 1.69 46 2.3Z" fill="#5F6FFF"/>
<path d="M59.448 37V13.098H62.712L72.402 28.602H70.532L80.188 13.098H83.452V37H78.862V21.02L79.746 21.292L73.014 32.104H69.886L63.154 21.292L64.072 21.02V37H59.448ZM95.7127 37.34C93.9901 37.34 92.4601 36.9773 91.1227 36.252C89.7854 35.504 88.7201 34.484 87.9267 33.192C87.1561 31.9 86.7707 30.4267 86.7707 28.772C86.7707 27.14 87.1447 25.6893 87.8927 24.42C88.6634 23.128 89.7061 22.108 91.0207 21.36C92.3354 20.5893 93.7974 20.204 95.4067 20.204C96.9934 20.204 98.3874 20.5667 99.5887 21.292C100.813 21.9947 101.765 22.9693 102.445 24.216C103.147 25.44 103.499 26.834 103.499 28.398C103.499 28.6927 103.476 28.9987 103.431 29.316C103.408 29.6107 103.351 29.9507 103.261 30.336L89.4567 30.37V27.038L101.187 27.004L99.3847 28.398C99.3394 27.4233 99.1581 26.6073 98.8407 25.95C98.5461 25.2927 98.1041 24.794 97.5147 24.454C96.9481 24.0913 96.2454 23.91 95.4067 23.91C94.5227 23.91 93.7521 24.114 93.0947 24.522C92.4374 24.9073 91.9274 25.4627 91.5647 26.188C91.2247 26.8907 91.0547 27.7293 91.0547 28.704C91.0547 29.7013 91.2361 30.574 91.5987 31.322C91.9841 32.0473 92.5281 32.614 93.2307 33.022C93.9334 33.4073 94.7494 33.6 95.6787 33.6C96.5174 33.6 97.2767 33.464 97.9567 33.192C98.6367 32.8973 99.2261 32.4667 99.7247 31.9L102.343 34.518C101.549 35.4473 100.575 36.15 99.4187 36.626C98.2854 37.102 97.0501 37.34 95.7127 37.34ZM113.189 37.34C111.671 37.34 110.311 36.966 109.109 36.218C107.908 35.47 106.956 34.45 106.253 33.158C105.573 31.866 105.233 30.4153 105.233 28.806C105.233 27.174 105.573 25.712 106.253 24.42C106.956 23.128 107.897 22.108 109.075 21.36C110.277 20.612 111.648 20.238 113.189 20.238C114.368 20.238 115.422 20.476 116.351 20.952C117.303 21.428 118.063 22.0967 118.629 22.958C119.219 23.7967 119.536 24.7487 119.581 25.814V31.662C119.536 32.7273 119.23 33.6907 118.663 34.552C118.097 35.4133 117.337 36.0933 116.385 36.592C115.433 37.0907 114.368 37.34 113.189 37.34ZM113.937 33.226C114.776 33.226 115.501 33.0447 116.113 32.682C116.748 32.2967 117.235 31.7753 117.575 31.118C117.938 30.438 118.119 29.656 118.119 28.772C118.119 27.9107 117.938 27.1513 117.575 26.494C117.235 25.814 116.748 25.2927 116.113 24.93C115.501 24.5447 114.787 24.352 113.971 24.352C113.133 24.352 112.396 24.5447 111.761 24.93C111.149 25.3153 110.662 25.8367 110.299 26.494C109.959 27.1513 109.789 27.9107 109.789 28.772C109.789 29.656 109.959 30.438 110.299 31.118C110.662 31.7753 111.161 32.2967 111.795 32.682C112.43 33.0447 113.144 33.226 113.937 33.226ZM122.301 37H117.881V32.58L118.595 28.568L117.847 24.624V12.418H122.301V37ZM126.242 37V20.578H130.73V37H126.242ZM128.486 17.926C127.76 17.926 127.16 17.688 126.684 17.212C126.208 16.7133 125.97 16.1013 125.97 15.376C125.97 14.6733 126.208 14.0727 126.684 13.574C127.16 13.0753 127.76 12.826 128.486 12.826C129.234 12.826 129.834 13.0753 130.288 13.574C130.764 14.0727 131.002 14.6733 131.002 15.376C131.002 16.1013 130.764 16.7133 130.288 17.212C129.834 17.688 129.234 17.926 128.486 17.926ZM146.235 37.34C144.49 37.34 142.869 37.034 141.373 36.422C139.877 35.7873 138.562 34.9147 137.429 33.804C136.318 32.6707 135.457 31.356 134.845 29.86C134.256 28.364 133.961 26.7547 133.961 25.032C133.961 23.3093 134.256 21.7 134.845 20.204C135.457 18.708 136.318 17.4047 137.429 16.294C138.562 15.1833 139.866 14.3107 141.339 13.676C142.835 13.0413 144.467 12.724 146.235 12.724C148.139 12.724 149.816 13.0413 151.267 13.676C152.718 14.288 153.998 15.138 155.109 16.226L151.981 19.354C151.324 18.6287 150.519 18.062 149.567 17.654C148.615 17.246 147.504 17.042 146.235 17.042C145.124 17.042 144.104 17.2347 143.175 17.62C142.268 17.9827 141.475 18.5267 140.795 19.252C140.115 19.9547 139.594 20.8047 139.231 21.802C138.868 22.7767 138.687 23.8533 138.687 25.032C138.687 26.2333 138.868 27.3213 139.231 28.296C139.594 29.2707 140.115 30.1207 140.795 30.846C141.475 31.5487 142.268 32.0927 143.175 32.478C144.104 32.8633 145.124 33.056 146.235 33.056C147.572 33.056 148.717 32.852 149.669 32.444C150.644 32.036 151.46 31.458 152.117 30.71L155.245 33.838C154.134 34.9487 152.842 35.81 151.369 36.422C149.896 37.034 148.184 37.34 146.235 37.34ZM165.27 37.34C163.615 37.34 162.119 36.966 160.782 36.218C159.467 35.4473 158.413 34.416 157.62 33.124C156.849 31.8093 156.464 30.3473 156.464 28.738C156.464 27.1287 156.849 25.6893 157.62 24.42C158.391 23.128 159.445 22.108 160.782 21.36C162.119 20.5893 163.604 20.204 165.236 20.204C166.913 20.204 168.409 20.5893 169.724 21.36C171.061 22.108 172.115 23.128 172.886 24.42C173.657 25.6893 174.042 27.1287 174.042 28.738C174.042 30.3473 173.657 31.8093 172.886 33.124C172.115 34.416 171.061 35.4473 169.724 36.218C168.409 36.966 166.925 37.34 165.27 37.34ZM165.236 33.192C166.075 33.192 166.811 33.0107 167.446 32.648C168.103 32.2627 168.602 31.7413 168.942 31.084C169.305 30.404 169.486 29.6333 169.486 28.772C169.486 27.9107 169.305 27.1513 168.942 26.494C168.579 25.8367 168.081 25.3267 167.446 24.964C166.811 24.5787 166.075 24.386 165.236 24.386C164.42 24.386 163.695 24.5787 163.06 24.964C162.425 25.3267 161.927 25.8367 161.564 26.494C161.201 27.1513 161.02 27.9107 161.02 28.772C161.02 29.6333 161.201 30.404 161.564 31.084C161.927 31.7413 162.425 32.2627 163.06 32.648C163.695 33.0107 164.42 33.192 165.236 33.192ZM187.96 37V27.582C187.96 26.6073 187.654 25.814 187.042 25.202C186.43 24.59 185.636 24.284 184.662 24.284C184.027 24.284 183.46 24.42 182.962 24.692C182.463 24.964 182.066 25.3493 181.772 25.848C181.5 26.3467 181.364 26.9247 181.364 27.582L179.63 26.698C179.63 25.406 179.902 24.284 180.446 23.332C181.012 22.3573 181.783 21.598 182.758 21.054C183.755 20.51 184.877 20.238 186.124 20.238C187.325 20.238 188.402 20.544 189.354 21.156C190.306 21.7453 191.054 22.5273 191.598 23.502C192.142 24.454 192.413 25.4853 192.413 26.596V37H187.96ZM176.91 37V20.578H181.364V37H176.91ZM207.051 37V27.582C207.051 26.6073 206.745 25.814 206.133 25.202C205.521 24.59 204.728 24.284 203.753 24.284C203.119 24.284 202.552 24.42 202.053 24.692C201.555 24.964 201.158 25.3493 200.863 25.848C200.591 26.3467 200.455 26.9247 200.455 27.582L198.721 26.698C198.721 25.406 198.993 24.284 199.537 23.332C200.104 22.3573 200.875 21.598 201.849 21.054C202.847 20.51 203.969 20.238 205.215 20.238C206.417 20.238 207.493 20.544 208.445 21.156C209.397 21.7453 210.145 22.5273 210.689 23.502C211.233 24.454 211.505 25.4853 211.505 26.596V37H207.051ZM196.001 37V20.578H200.455V37H196.001ZM222.947 37.34C221.224 37.34 219.694 36.9773 218.357 36.252C217.02 35.504 215.954 34.484 215.161 33.192C214.39 31.9 214.005 30.4267 214.005 28.772C214.005 27.14 214.379 25.6893 215.127 24.42C215.898 23.128 216.94 22.108 218.255 21.36C219.57 20.5893 221.032 20.204 222.641 20.204C224.228 20.204 225.622 20.5667 226.823 21.292C228.047 21.9947 228.999 22.9693 229.679 24.216C230.382 25.44 230.733 26.834 230.733 28.398C230.733 28.6927 230.71 28.9987 230.665 29.316C230.642 29.6107 230.586 29.9507 230.495 30.336L216.691 30.37V27.038L228.421 27.004L226.619 28.398C226.574 27.4233 226.392 26.6073 226.075 25.95C225.78 25.2927 225.338 24.794 224.749 24.454C224.182 24.0913 223.48 23.91 222.641 23.91C221.757 23.91 220.986 24.114 220.329 24.522C219.672 24.9073 219.162 25.4627 218.799 26.188C218.459 26.8907 218.289 27.7293 218.289 28.704C218.289 29.7013 218.47 30.574 218.833 31.322C219.218 32.0473 219.762 32.614 220.465 33.022C221.168 33.4073 221.984 33.6 222.913 33.6C223.752 33.6 224.511 33.464 225.191 33.192C225.871 32.8973 226.46 32.4667 226.959 31.9L229.577 34.518C228.784 35.4473 227.809 36.15 226.653 36.626C225.52 37.102 224.284 37.34 222.947 37.34ZM241.24 37.34C239.562 37.34 238.055 36.966 236.718 36.218C235.38 35.47 234.326 34.45 233.556 33.158C232.785 31.866 232.4 30.4153 232.4 28.806C232.4 27.174 232.785 25.712 233.556 24.42C234.326 23.128 235.38 22.108 236.718 21.36C238.078 20.5893 239.585 20.204 241.24 20.204C242.532 20.204 243.722 20.442 244.81 20.918C245.898 21.394 246.838 22.074 247.632 22.958L244.776 25.848C244.345 25.372 243.824 25.0093 243.212 24.76C242.622 24.5107 241.965 24.386 241.24 24.386C240.424 24.386 239.687 24.5787 239.03 24.964C238.395 25.3267 237.885 25.8367 237.5 26.494C237.137 27.1287 236.956 27.888 236.956 28.772C236.956 29.6333 237.137 30.404 237.5 31.084C237.885 31.7413 238.395 32.2627 239.03 32.648C239.687 33.0107 240.424 33.192 241.24 33.192C241.988 33.192 242.656 33.0673 243.246 32.818C243.858 32.546 244.379 32.1607 244.81 31.662L247.7 34.552C246.861 35.4587 245.898 36.15 244.81 36.626C243.722 37.102 242.532 37.34 241.24 37.34ZM252.37 37V13.744H256.824V37H252.37ZM248.528 24.488V20.578H260.666V24.488H248.528Z" fill="#000B6D"/>
</svg>
